# xmcd
#
# Track frame offsets:
#	150
#	12437
#	21730
#	35038
#	45820
#	56118
#	67459
#	81710
#	93669
#	107429
#	120295
#	134171
#	147407
#	159598
#	171448
#	183640
#	194127
#	205710
#	216808
#	226092
#
# Disc length: 3152 seconds
#
# Revision: 2
# Processed by: cddbd v1.5.2PL0 Copyright (c) Steve Scherf et al.
# Submitted via: audiograbber 1.83.01
#
DISCID=390c4e14
DTITLE=Country - [CD 1-3] - Country - Maxi 3CD
DYEAR=2011
DGENRE=Country
TTITLE0=01 - Johnny Cash - I Walk The Line
TTITLE1=02 - Elvis Presley - Blue Moon Of Kentucky
TTITLE2=03 - B.J. Thomas - Raindrops Keep Falling On My Head
TTITLE3=04 - Dolly Parton - It Wasn't God Who Made Honky Tonk Angels
TTITLE4=05 - Faron Young - Live Fast, Love Hard, Die Young
TTITLE5=06 - Carl Smith - Hey Joe
TTITLE6=07 - Hot Billys - Cotton Eyed Joe
TTITLE7=08 - Patsy Cline - Walkin' After Midnight
TTITLE8=09 - Redd Foley and Ernest Tubb - Goodnight Irene
TTITLE9=10 - T.G. Sheppard - Devil In The Bottle
TTITLE10=11 - Tex Ritter - Conversation With A Gun
TTITLE11=12 - Vaughn Monroe - Riders In The Sky
TTITLE12=13 - Hank Williams - You're Cheatin Heart
TTITLE13=14 - Billie Joe Spears - Look What They've Done To My Song
TTITLE14=15 - Frankie Laine - High Noon
TTITLE15=16 - Ferlin Husky - Wings Of A Dove
TTITLE16=17 - Kenny Rogers - Me And Bobby Mc Gee
TTITLE17=18 - Sandy Posey - I Will Follow Him
TTITLE18=19 - Willie Nelson - One Step Beyond
TTITLE19=20 - Don Gibson - Oh Lonesome Me
EXTD=
EXTT0=
EXTT1=
EXTT2=
EXTT3=
EXTT4=
EXTT5=
EXTT6=
EXTT7=
EXTT8=
EXTT9=
EXTT10=
EXTT11=
EXTT12=
EXTT13=
EXTT14=
EXTT15=
EXTT16=
EXTT17=
EXTT18=
EXTT19=
PLAYORDER=
